<?xml version="1.0" encoding="UTF-8"?>
<svg id="Layer_2" data-name="Layer 2" xmlns="http://www.w3.org/2000/svg" viewBox="0 0 218.57 255.64">
  <defs>
    <style>
      .cls-1 {
        fill: #5f5ba8;
      }

      .cls-2 {
        fill: #cfc34c;
      }

      .cls-3 {
        fill: #bf2030;
      }
    </style>
  </defs>
  <g id="Layer_1-2" data-name="Layer 1">
    <g>
      <path class="cls-1" d="M0,111.7h218.57v133.51c0,5.75-4.67,10.42-10.42,10.42H10.42c-5.75,0-10.42-4.67-10.42-10.42V111.7h0Z"/>
      <path class="cls-1" d="M109.28,0C42.07,0,0,43.04,0,111.7c0,6.86.42,14.03,1.14,21.27h216.29c.72-7.24,1.14-14.41,1.14-21.27C218.57,43.04,176.5,0,109.28,0Z"/>
      <g>
        <path class="cls-2" d="M109.24,30.9c-46.27,0-71.98,29.13-71.98,74.72v21.59s143.96,0,143.96,0v-21.59c0-45.59-25.71-74.72-71.98-74.72Z"/>
        <path class="cls-2" d="M37.27,127.22h143.96v86.16c0,8.65-7.02,15.67-15.67,15.67H52.94c-8.65,0-15.67-7.02-15.67-15.67v-86.16h0Z"/>
      </g>
      <g>
        <path class="cls-3" d="M109.28,67.8c-22.04,0-35.77,14.56-35.77,37.85v31.61s71.54,0,71.54,0v-31.61c0-23.29-13.72-37.85-35.77-37.85Z"/>
        <path class="cls-3" d="M73.51,118.97h71.46v67.27c0,5.4-4.38,9.78-9.78,9.78h-51.9c-5.4,0-9.78-4.38-9.78-9.78v-67.27h0Z"/>
      </g>
    </g>
  </g>
</svg>