<?xml version="1.0" encoding="UTF-8"?>
<svg id="Layer_2" data-name="Layer 2" xmlns="http://www.w3.org/2000/svg" xmlns:xlink="http://www.w3.org/1999/xlink" viewBox="0 0 679.21 376.64">
  <defs>
    <style>
      .cls-1 {
        fill: none;
      }

      .cls-2 {
        fill: #5e5aa7;
      }

      .cls-3, .cls-4 {
        fill: #231f20;
      }

      .cls-4 {
        font-family: NewOrder-Semibold, 'New Order';
        font-size: 41.07px;
        font-weight: 600;
      }

      .cls-5 {
        fill: #cfc34c;
      }

      .cls-6 {
        letter-spacing: -.02em;
      }

      .cls-7 {
        letter-spacing: -.05em;
      }

      .cls-8 {
        letter-spacing: 0em;
      }

      .cls-9 {
        letter-spacing: 0em;
      }

      .cls-10 {
        fill: #bf2030;
      }

      .cls-11 {
        letter-spacing: 0em;
      }

      .cls-12 {
        clip-path: url(#clippath);
      }
    </style>
    <clipPath id="clippath">
      <rect class="cls-1" width="679.21" height="376.64"/>
    </clipPath>
  </defs>
  <g id="Layer_1-2" data-name="Layer 1">
    <g class="cls-12">
      <path class="cls-10" d="M149.76,283.89c18.16,0,32.87-14.99,32.87-33.48s-14.72-33.48-32.87-33.48-32.87,14.99-32.87,33.48,14.72,33.48,32.87,33.48"/>
    </g>
    <circle class="cls-5" cx="262.68" cy="92.64" r="63.39"/>
    <circle class="cls-2" cx="525.7" cy="283.17" r="57.35"/>
    <text class="cls-4" transform="translate(188.71 156.03) rotate(-90)"><tspan x="0" y="0">About</tspan></text>
    <text class="cls-4" transform="translate(40.45 350.85) rotate(-90)"><tspan class="cls-7" x="0" y="0">W</tspan><tspan x="39.79" y="0">or</tspan><tspan class="cls-9" x="78.36" y="0">k</tspan></text>
    <text class="cls-4" transform="translate(444.51 358.85) rotate(-90)"><tspan class="cls-6" x="0" y="0">C</tspan><tspan x="22.92" y="0">o</tspan><tspan class="cls-8" x="48.54" y="0">n</tspan><tspan class="cls-11" x="70.92" y="0">t</tspan><tspan x="83.57" y="0">act</tspan></text>
    <path class="cls-3" d="M638.32,374.17h40.9v-181.32h-40.9v70.21h-57.65v-70.21h-40.9v181.32h40.9v-72.18h57.65v72.18ZM526.22,376.64c8.13,0,17.49-.74,26.61-2.22v-37.69c-7.88,1.48-16.26,2.46-23.9,2.46-34.98,0-56.91-21.43-56.91-55.68s21.93-55.68,56.91-55.68c7.64,0,16.01.99,23.9,2.46v-37.69c-9.12-1.48-18.48-2.22-26.61-2.22-57.4,0-96.57,37.69-96.57,93.13s39.17,93.13,96.57,93.13M299.57,374.17h38.43v-107.41l68.98,107.41h36.95v-181.32h-38.43v107.66l-68.98-107.66h-36.95v181.32ZM205.46,374.17h103.72v-37.94h-62.82v-34.74h61.1v-37.94h-61.1v-32.77h61.84v-37.94h-102.73v181.32ZM131.31,270.46v-42.37h18.72c13.8,0,22.42,8.13,22.42,21.19s-8.62,21.19-22.42,21.19h-18.72ZM176.15,374.17h49.27l-51.98-74.89c25.62-6.41,40.65-25.13,40.65-50.01,0-37.2-23.65-56.42-62.08-56.42h-61.59v181.32h40.9v-70.95l44.84,70.95ZM0,374.17h40.9v-71.45h60.85v-37.94h-60.85v-34h62.33v-37.94H0v181.32Z"/>
    <path class="cls-3" d="M470.55,181.32h38.43v-107.41l68.98,107.41h36.95V0h-38.43v107.66L507.5,0h-36.95v181.32ZM383.83,118.99l19.71-64.3,19.96,64.3h-39.66ZM322.73,181.32h42.13l8.38-27.35h61.1l8.38,27.35h42.62L423.74,0h-39.91l-61.1,181.32ZM235.52,142.4V38.93h15.52c32.77,0,53.71,18.48,53.71,51.74s-20.94,51.74-53.71,51.74h-15.52ZM194.62,181.32h56.42c57.16,0,96.08-35.23,96.08-90.66S308.2,0,251.04,0h-56.42v181.32ZM147.81,181.32h40.9V0h-40.9v181.32ZM61.1,118.99l19.71-64.3,19.96,64.3h-39.66ZM0,181.32h42.13l8.38-27.35h61.1l8.38,27.35h42.62L101.01,0h-39.91L0,181.32Z"/>
  </g>
</svg>